<?xml version="1.0" encoding="utf-8" standalone="no"?>
<!DOCTYPE svg PUBLIC "-//W3C//DTD SVG 1.1//EN"
  "http://www.w3.org/Graphics/SVG/1.1/DTD/svg11.dtd">
<svg xmlns:xlink="http://www.w3.org/1999/xlink" width="720pt" height="216pt" viewBox="0 0 720 216" xmlns="http://www.w3.org/2000/svg" version="1.1">
 <metadata>
  <rdf:RDF xmlns:dc="http://purl.org/dc/elements/1.1/" xmlns:cc="http://creativecommons.org/ns#" xmlns:rdf="http://www.w3.org/1999/02/22-rdf-syntax-ns#">
   <cc:Work>
    <dc:type rdf:resource="http://purl.org/dc/dcmitype/StillImage"/>
    <dc:date>2024-06-24T04:06:46.287489</dc:date>
    <dc:format>image/svg+xml</dc:format>
    <dc:creator>
     <cc:Agent>
      <dc:title>Matplotlib v3.6.3, https://matplotlib.org/</dc:title>
     </cc:Agent>
    </dc:creator>
   </cc:Work>
  </rdf:RDF>
 </metadata>
 <defs>
  <style type="text/css">*{stroke-linejoin: round; stroke-linecap: butt}</style>
 </defs>
 <g id="figure_1">
  <g id="patch_1">
   <path d="M 0 216 
L 720 216 
L 720 0 
L 0 0 
z
" style="fill: #ffffff"/>
  </g>
  <g id="axes_1">
   <g id="patch_2">
    <path d="M 33.73 95.23 
L 709.2 95.23 
L 709.2 14.76 
L 33.73 14.76 
z
" style="fill: #ffffff"/>
   </g>
   <g id="PatchCollection_1">
    <path d="M 33.73 95.23 
L 47.2394 95.23 
L 47.2394 14.76 
L 33.73 14.76 
z
" clip-path="url(#pe5a550eb34)" style="fill: #e2d981"/>
    <path d="M 47.2394 95.23 
L 60.7488 95.23 
L 60.7488 14.76 
L 47.2394 14.76 
z
" clip-path="url(#pe5a550eb34)" style="fill: #e2d981"/>
    <path d="M 60.7488 95.23 
L 74.2582 95.23 
L 74.2582 14.76 
L 60.7488 14.76 
z
" clip-path="url(#pe5a550eb34)" style="fill: #e2d981"/>
    <path d="M 74.2582 95.23 
L 87.7676 95.23 
L 87.7676 15.156256 
L 74.2582 15.156256 
z
" clip-path="url(#pe5a550eb34)" style="fill: #e2d981"/>
    <path d="M 74.2582 15.156256 
L 87.7676 15.156256 
L 87.7676 14.76 
L 74.2582 14.76 
z
" clip-path="url(#pe5a550eb34)" style="fill: #969ff9"/>
    <path d="M 87.7676 95.23 
L 101.277 95.23 
L 101.277 14.76 
L 87.7676 14.76 
z
" clip-path="url(#pe5a550eb34)" style="fill: #e2d981"/>
    <path d="M 101.277 95.23 
L 114.7864 95.23 
L 114.7864 14.76 
L 101.277 14.76 
z
" clip-path="url(#pe5a550eb34)" style="fill: #e2d981"/>
    <path d="M 114.7864 95.23 
L 128.2958 95.23 
L 128.2958 27.264597 
L 114.7864 27.264597 
z
" clip-path="url(#pe5a550eb34)" style="fill: #e2d981"/>
    <path d="M 114.7864 27.264597 
L 128.2958 27.264597 
L 128.2958 14.76 
L 114.7864 14.76 
z
" clip-path="url(#pe5a550eb34)" style="fill: #94c384"/>
    <path d="M 128.2958 95.23 
L 141.8052 95.23 
L 141.8052 27.823943 
L 128.2958 27.823943 
z
" clip-path="url(#pe5a550eb34)" style="fill: #e2d981"/>
    <path d="M 128.2958 27.823943 
L 141.8052 27.823943 
L 141.8052 14.76 
L 128.2958 14.76 
z
" clip-path="url(#pe5a550eb34)" style="fill: #f7a39e"/>
    <path d="M 141.8052 95.23 
L 155.3146 95.23 
L 155.3146 35.101744 
L 141.8052 35.101744 
z
" clip-path="url(#pe5a550eb34)" style="fill: #e2d981"/>
    <path d="M 141.8052 35.101744 
L 155.3146 35.101744 
L 155.3146 14.76 
L 141.8052 14.76 
z
" clip-path="url(#pe5a550eb34)" style="fill: #d08a91"/>
    <path d="M 155.3146 95.23 
L 168.824 95.23 
L 168.824 32.924702 
L 155.3146 32.924702 
z
" clip-path="url(#pe5a550eb34)" style="fill: #e2d981"/>
    <path d="M 155.3146 32.924702 
L 168.824 32.924702 
L 168.824 14.76 
L 155.3146 14.76 
z
" clip-path="url(#pe5a550eb34)" style="fill: #f7a39e"/>
    <path d="M 168.824 95.23 
L 182.3334 95.23 
L 182.3334 34.655054 
L 168.824 34.655054 
z
" clip-path="url(#pe5a550eb34)" style="fill: #e2d981"/>
    <path d="M 168.824 34.655054 
L 182.3334 34.655054 
L 182.3334 14.76 
L 168.824 14.76 
z
" clip-path="url(#pe5a550eb34)" style="fill: #f7a39e"/>
    <path d="M 182.3334 95.23 
L 195.8428 95.23 
L 195.8428 34.735075 
L 182.3334 34.735075 
z
" clip-path="url(#pe5a550eb34)" style="fill: #e2d981"/>
    <path d="M 182.3334 34.735075 
L 195.8428 34.735075 
L 195.8428 14.76 
L 182.3334 14.76 
z
" clip-path="url(#pe5a550eb34)" style="fill: #f7a39e"/>
    <path d="M 195.8428 95.23 
L 209.3522 95.23 
L 209.3522 40.053317 
L 195.8428 40.053317 
z
" clip-path="url(#pe5a550eb34)" style="fill: #e2d981"/>
    <path d="M 195.8428 40.053317 
L 209.3522 40.053317 
L 209.3522 14.76 
L 195.8428 14.76 
z
" clip-path="url(#pe5a550eb34)" style="fill: #f7a39e"/>
    <path d="M 209.3522 95.23 
L 222.8616 95.23 
L 222.8616 40.11921 
L 209.3522 40.11921 
z
" clip-path="url(#pe5a550eb34)" style="fill: #e2d981"/>
    <path d="M 209.3522 40.11921 
L 222.8616 40.11921 
L 222.8616 14.76 
L 209.3522 14.76 
z
" clip-path="url(#pe5a550eb34)" style="fill: #f7a39e"/>
    <path d="M 222.8616 95.23 
L 236.371 95.23 
L 236.371 41.176067 
L 222.8616 41.176067 
z
" clip-path="url(#pe5a550eb34)" style="fill: #fc8390"/>
    <path d="M 222.8616 41.176067 
L 236.371 41.176067 
L 236.371 14.76 
L 222.8616 14.76 
z
" clip-path="url(#pe5a550eb34)" style="fill: #d08a91"/>
    <path d="M 236.371 95.23 
L 249.8804 95.23 
L 249.8804 41.823036 
L 236.371 41.823036 
z
" clip-path="url(#pe5a550eb34)" style="fill: #fc8390"/>
    <path d="M 236.371 41.823036 
L 249.8804 41.823036 
L 249.8804 14.76 
L 236.371 14.76 
z
" clip-path="url(#pe5a550eb34)" style="fill: #f7a39e"/>
    <path d="M 249.8804 95.23 
L 263.3898 95.23 
L 263.3898 43.532032 
L 249.8804 43.532032 
z
" clip-path="url(#pe5a550eb34)" style="fill: #fc8390"/>
    <path d="M 249.8804 43.532032 
L 263.3898 43.532032 
L 263.3898 14.76 
L 249.8804 14.76 
z
" clip-path="url(#pe5a550eb34)" style="fill: #f7a39e"/>
    <path d="M 263.3898 95.23 
L 276.8992 95.23 
L 276.8992 53.860891 
L 263.3898 53.860891 
z
" clip-path="url(#pe5a550eb34)" style="fill: #fc8390"/>
    <path d="M 263.3898 53.860891 
L 276.8992 53.860891 
L 276.8992 48.392832 
L 263.3898 48.392832 
z
" clip-path="url(#pe5a550eb34)" style="fill: #b3dbec"/>
    <path d="M 263.3898 48.392832 
L 276.8992 48.392832 
L 276.8992 14.76 
L 263.3898 14.76 
z
" clip-path="url(#pe5a550eb34)" style="fill: #f7a39e"/>
   </g>
   <g id="matplotlib.axis_1">
    <g id="xtick_1">
     <g id="line2d_1">
      <defs>
       <path id="mf784475f1b" d="M 0 0 
L 0 3.5 
" style="stroke: #000000; stroke-width: 0.8"/>
      </defs>
      <g>
       <use xlink:href="#mf784475f1b" x="40.4847" y="95.23" style="stroke: #000000; stroke-width: 0.8"/>
      </g>
     </g>
     <g id="text_1">
      <!-- R55 -->
      <g transform="translate(42.140325 114.034063) rotate(-90) scale(0.06 -0.06)">
       <defs>
        <path id="DejaVuSans-52" d="M 2841 2188 
Q 3044 2119 3236 1894 
Q 3428 1669 3622 1275 
L 4263 0 
L 3584 0 
L 2988 1197 
Q 2756 1666 2539 1819 
Q 2322 1972 1947 1972 
L 1259 1972 
L 1259 0 
L 628 0 
L 628 4666 
L 2053 4666 
Q 2853 4666 3247 4331 
Q 3641 3997 3641 3322 
Q 3641 2881 3436 2590 
Q 3231 2300 2841 2188 
z
M 1259 4147 
L 1259 2491 
L 2053 2491 
Q 2509 2491 2742 2702 
Q 2975 2913 2975 3322 
Q 2975 3731 2742 3939 
Q 2509 4147 2053 4147 
L 1259 4147 
z
" transform="scale(0.015625)"/>
        <path id="DejaVuSans-35" d="M 691 4666 
L 3169 4666 
L 3169 4134 
L 1269 4134 
L 1269 2991 
Q 1406 3038 1543 3061 
Q 1681 3084 1819 3084 
Q 2600 3084 3056 2656 
Q 3513 2228 3513 1497 
Q 3513 744 3044 326 
Q 2575 -91 1722 -91 
Q 1428 -91 1123 -41 
Q 819 9 494 109 
L 494 744 
Q 775 591 1075 516 
Q 1375 441 1709 441 
Q 2250 441 2565 725 
Q 2881 1009 2881 1497 
Q 2881 1984 2565 2268 
Q 2250 2553 1709 2553 
Q 1456 2553 1204 2497 
Q 953 2441 691 2322 
L 691 4666 
z
" transform="scale(0.015625)"/>
       </defs>
       <use xlink:href="#DejaVuSans-52"/>
       <use xlink:href="#DejaVuSans-35" x="69.482422"/>
       <use xlink:href="#DejaVuSans-35" x="133.105469"/>
      </g>
     </g>
    </g>
    <g id="xtick_2">
     <g id="line2d_2">
      <g>
       <use xlink:href="#mf784475f1b" x="53.9941" y="95.23" style="stroke: #000000; stroke-width: 0.8"/>
      </g>
     </g>
     <g id="text_2">
      <!-- R60 -->
      <g transform="translate(55.649725 114.034063) rotate(-90) scale(0.06 -0.06)">
       <defs>
        <path id="DejaVuSans-36" d="M 2113 2584 
Q 1688 2584 1439 2293 
Q 1191 2003 1191 1497 
Q 1191 994 1439 701 
Q 1688 409 2113 409 
Q 2538 409 2786 701 
Q 3034 994 3034 1497 
Q 3034 2003 2786 2293 
Q 2538 2584 2113 2584 
z
M 3366 4563 
L 3366 3988 
Q 3128 4100 2886 4159 
Q 2644 4219 2406 4219 
Q 1781 4219 1451 3797 
Q 1122 3375 1075 2522 
Q 1259 2794 1537 2939 
Q 1816 3084 2150 3084 
Q 2853 3084 3261 2657 
Q 3669 2231 3669 1497 
Q 3669 778 3244 343 
Q 2819 -91 2113 -91 
Q 1303 -91 875 529 
Q 447 1150 447 2328 
Q 447 3434 972 4092 
Q 1497 4750 2381 4750 
Q 2619 4750 2861 4703 
Q 3103 4656 3366 4563 
z
" transform="scale(0.015625)"/>
        <path id="DejaVuSans-30" d="M 2034 4250 
Q 1547 4250 1301 3770 
Q 1056 3291 1056 2328 
Q 1056 1369 1301 889 
Q 1547 409 2034 409 
Q 2525 409 2770 889 
Q 3016 1369 3016 2328 
Q 3016 3291 2770 3770 
Q 2525 4250 2034 4250 
z
M 2034 4750 
Q 2819 4750 3233 4129 
Q 3647 3509 3647 2328 
Q 3647 1150 3233 529 
Q 2819 -91 2034 -91 
Q 1250 -91 836 529 
Q 422 1150 422 2328 
Q 422 3509 836 4129 
Q 1250 4750 2034 4750 
z
" transform="scale(0.015625)"/>
       </defs>
       <use xlink:href="#DejaVuSans-52"/>
       <use xlink:href="#DejaVuSans-36" x="69.482422"/>
       <use xlink:href="#DejaVuSans-30" x="133.105469"/>
      </g>
     </g>
    </g>
    <g id="xtick_3">
     <g id="line2d_3">
      <g>
       <use xlink:href="#mf784475f1b" x="67.5035" y="95.23" style="stroke: #000000; stroke-width: 0.8"/>
      </g>
     </g>
     <g id="text_3">
      <!-- R56 -->
      <g transform="translate(69.159125 114.034063) rotate(-90) scale(0.06 -0.06)">
       <use xlink:href="#DejaVuSans-52"/>
       <use xlink:href="#DejaVuSans-35" x="69.482422"/>
       <use xlink:href="#DejaVuSans-36" x="133.105469"/>
      </g>
     </g>
    </g>
    <g id="xtick_4">
     <g id="line2d_4">
      <g>
       <use xlink:href="#mf784475f1b" x="81.0129" y="95.23" style="stroke: #000000; stroke-width: 0.8"/>
      </g>
     </g>
     <g id="text_4">
      <!-- R57 -->
      <g transform="translate(82.668525 114.034063) rotate(-90) scale(0.06 -0.06)">
       <defs>
        <path id="DejaVuSans-37" d="M 525 4666 
L 3525 4666 
L 3525 4397 
L 1831 0 
L 1172 0 
L 2766 4134 
L 525 4134 
L 525 4666 
z
" transform="scale(0.015625)"/>
       </defs>
       <use xlink:href="#DejaVuSans-52"/>
       <use xlink:href="#DejaVuSans-35" x="69.482422"/>
       <use xlink:href="#DejaVuSans-37" x="133.105469"/>
      </g>
     </g>
    </g>
    <g id="xtick_5">
     <g id="line2d_5">
      <g>
       <use xlink:href="#mf784475f1b" x="94.5223" y="95.23" style="stroke: #000000; stroke-width: 0.8"/>
      </g>
     </g>
     <g id="text_5">
      <!-- R58 -->
      <g transform="translate(96.177925 114.034063) rotate(-90) scale(0.06 -0.06)">
       <defs>
        <path id="DejaVuSans-38" d="M 2034 2216 
Q 1584 2216 1326 1975 
Q 1069 1734 1069 1313 
Q 1069 891 1326 650 
Q 1584 409 2034 409 
Q 2484 409 2743 651 
Q 3003 894 3003 1313 
Q 3003 1734 2745 1975 
Q 2488 2216 2034 2216 
z
M 1403 2484 
Q 997 2584 770 2862 
Q 544 3141 544 3541 
Q 544 4100 942 4425 
Q 1341 4750 2034 4750 
Q 2731 4750 3128 4425 
Q 3525 4100 3525 3541 
Q 3525 3141 3298 2862 
Q 3072 2584 2669 2484 
Q 3125 2378 3379 2068 
Q 3634 1759 3634 1313 
Q 3634 634 3220 271 
Q 2806 -91 2034 -91 
Q 1263 -91 848 271 
Q 434 634 434 1313 
Q 434 1759 690 2068 
Q 947 2378 1403 2484 
z
M 1172 3481 
Q 1172 3119 1398 2916 
Q 1625 2713 2034 2713 
Q 2441 2713 2670 2916 
Q 2900 3119 2900 3481 
Q 2900 3844 2670 4047 
Q 2441 4250 2034 4250 
Q 1625 4250 1398 4047 
Q 1172 3844 1172 3481 
z
" transform="scale(0.015625)"/>
       </defs>
       <use xlink:href="#DejaVuSans-52"/>
       <use xlink:href="#DejaVuSans-35" x="69.482422"/>
       <use xlink:href="#DejaVuSans-38" x="133.105469"/>
      </g>
     </g>
    </g>
    <g id="xtick_6">
     <g id="line2d_6">
      <g>
       <use xlink:href="#mf784475f1b" x="108.0317" y="95.23" style="stroke: #000000; stroke-width: 0.8"/>
      </g>
     </g>
     <g id="text_6">
      <!-- R59 -->
      <g transform="translate(109.687325 114.034063) rotate(-90) scale(0.06 -0.06)">
       <defs>
        <path id="DejaVuSans-39" d="M 703 97 
L 703 672 
Q 941 559 1184 500 
Q 1428 441 1663 441 
Q 2288 441 2617 861 
Q 2947 1281 2994 2138 
Q 2813 1869 2534 1725 
Q 2256 1581 1919 1581 
Q 1219 1581 811 2004 
Q 403 2428 403 3163 
Q 403 3881 828 4315 
Q 1253 4750 1959 4750 
Q 2769 4750 3195 4129 
Q 3622 3509 3622 2328 
Q 3622 1225 3098 567 
Q 2575 -91 1691 -91 
Q 1453 -91 1209 -44 
Q 966 3 703 97 
z
M 1959 2075 
Q 2384 2075 2632 2365 
Q 2881 2656 2881 3163 
Q 2881 3666 2632 3958 
Q 2384 4250 1959 4250 
Q 1534 4250 1286 3958 
Q 1038 3666 1038 3163 
Q 1038 2656 1286 2365 
Q 1534 2075 1959 2075 
z
" transform="scale(0.015625)"/>
       </defs>
       <use xlink:href="#DejaVuSans-52"/>
       <use xlink:href="#DejaVuSans-35" x="69.482422"/>
       <use xlink:href="#DejaVuSans-39" x="133.105469"/>
      </g>
     </g>
    </g>
    <g id="xtick_7">
     <g id="line2d_7">
      <g>
       <use xlink:href="#mf784475f1b" x="121.5411" y="95.23" style="stroke: #000000; stroke-width: 0.8"/>
      </g>
     </g>
     <g id="text_7">
      <!-- R70 -->
      <g transform="translate(123.196725 114.034063) rotate(-90) scale(0.06 -0.06)">
       <use xlink:href="#DejaVuSans-52"/>
       <use xlink:href="#DejaVuSans-37" x="69.482422"/>
       <use xlink:href="#DejaVuSans-30" x="133.105469"/>
      </g>
     </g>
    </g>
    <g id="xtick_8">
     <g id="line2d_8">
      <g>
       <use xlink:href="#mf784475f1b" x="135.0505" y="95.23" style="stroke: #000000; stroke-width: 0.8"/>
      </g>
     </g>
     <g id="text_8">
      <!-- R69 -->
      <g transform="translate(136.706125 114.034063) rotate(-90) scale(0.06 -0.06)">
       <use xlink:href="#DejaVuSans-52"/>
       <use xlink:href="#DejaVuSans-36" x="69.482422"/>
       <use xlink:href="#DejaVuSans-39" x="133.105469"/>
      </g>
     </g>
    </g>
    <g id="xtick_9">
     <g id="line2d_9">
      <g>
       <use xlink:href="#mf784475f1b" x="148.5599" y="95.23" style="stroke: #000000; stroke-width: 0.8"/>
      </g>
     </g>
     <g id="text_9">
      <!-- R65 -->
      <g transform="translate(150.215525 114.034063) rotate(-90) scale(0.06 -0.06)">
       <use xlink:href="#DejaVuSans-52"/>
       <use xlink:href="#DejaVuSans-36" x="69.482422"/>
       <use xlink:href="#DejaVuSans-35" x="133.105469"/>
      </g>
     </g>
    </g>
    <g id="xtick_10">
     <g id="line2d_10">
      <g>
       <use xlink:href="#mf784475f1b" x="162.0693" y="95.23" style="stroke: #000000; stroke-width: 0.8"/>
      </g>
     </g>
     <g id="text_10">
      <!-- R72 -->
      <g transform="translate(163.724925 114.034063) rotate(-90) scale(0.06 -0.06)">
       <defs>
        <path id="DejaVuSans-32" d="M 1228 531 
L 3431 531 
L 3431 0 
L 469 0 
L 469 531 
Q 828 903 1448 1529 
Q 2069 2156 2228 2338 
Q 2531 2678 2651 2914 
Q 2772 3150 2772 3378 
Q 2772 3750 2511 3984 
Q 2250 4219 1831 4219 
Q 1534 4219 1204 4116 
Q 875 4013 500 3803 
L 500 4441 
Q 881 4594 1212 4672 
Q 1544 4750 1819 4750 
Q 2544 4750 2975 4387 
Q 3406 4025 3406 3419 
Q 3406 3131 3298 2873 
Q 3191 2616 2906 2266 
Q 2828 2175 2409 1742 
Q 1991 1309 1228 531 
z
" transform="scale(0.015625)"/>
       </defs>
       <use xlink:href="#DejaVuSans-52"/>
       <use xlink:href="#DejaVuSans-37" x="69.482422"/>
       <use xlink:href="#DejaVuSans-32" x="133.105469"/>
      </g>
     </g>
    </g>
    <g id="xtick_11">
     <g id="line2d_11">
      <g>
       <use xlink:href="#mf784475f1b" x="175.5787" y="95.23" style="stroke: #000000; stroke-width: 0.8"/>
      </g>
     </g>
     <g id="text_11">
      <!-- R67 -->
      <g transform="translate(177.234325 114.034063) rotate(-90) scale(0.06 -0.06)">
       <use xlink:href="#DejaVuSans-52"/>
       <use xlink:href="#DejaVuSans-36" x="69.482422"/>
       <use xlink:href="#DejaVuSans-37" x="133.105469"/>
      </g>
     </g>
    </g>
    <g id="xtick_12">
     <g id="line2d_12">
      <g>
       <use xlink:href="#mf784475f1b" x="189.0881" y="95.23" style="stroke: #000000; stroke-width: 0.8"/>
      </g>
     </g>
     <g id="text_12">
      <!-- R71 -->
      <g transform="translate(190.743725 114.034063) rotate(-90) scale(0.06 -0.06)">
       <defs>
        <path id="DejaVuSans-31" d="M 794 531 
L 1825 531 
L 1825 4091 
L 703 3866 
L 703 4441 
L 1819 4666 
L 2450 4666 
L 2450 531 
L 3481 531 
L 3481 0 
L 794 0 
L 794 531 
z
" transform="scale(0.015625)"/>
       </defs>
       <use xlink:href="#DejaVuSans-52"/>
       <use xlink:href="#DejaVuSans-37" x="69.482422"/>
       <use xlink:href="#DejaVuSans-31" x="133.105469"/>
      </g>
     </g>
    </g>
    <g id="xtick_13">
     <g id="line2d_13">
      <g>
       <use xlink:href="#mf784475f1b" x="202.5975" y="95.23" style="stroke: #000000; stroke-width: 0.8"/>
      </g>
     </g>
     <g id="text_13">
      <!-- R66 -->
      <g transform="translate(204.253125 114.034063) rotate(-90) scale(0.06 -0.06)">
       <use xlink:href="#DejaVuSans-52"/>
       <use xlink:href="#DejaVuSans-36" x="69.482422"/>
       <use xlink:href="#DejaVuSans-36" x="133.105469"/>
      </g>
     </g>
    </g>
    <g id="xtick_14">
     <g id="line2d_14">
      <g>
       <use xlink:href="#mf784475f1b" x="216.1069" y="95.23" style="stroke: #000000; stroke-width: 0.8"/>
      </g>
     </g>
     <g id="text_14">
      <!-- R68 -->
      <g transform="translate(217.762525 114.034063) rotate(-90) scale(0.06 -0.06)">
       <use xlink:href="#DejaVuSans-52"/>
       <use xlink:href="#DejaVuSans-36" x="69.482422"/>
       <use xlink:href="#DejaVuSans-38" x="133.105469"/>
      </g>
     </g>
    </g>
    <g id="xtick_15">
     <g id="line2d_15">
      <g>
       <use xlink:href="#mf784475f1b" x="229.6163" y="95.23" style="stroke: #000000; stroke-width: 0.8"/>
      </g>
     </g>
     <g id="text_15">
      <!-- R63 -->
      <g transform="translate(231.271925 114.034063) rotate(-90) scale(0.06 -0.06)">
       <defs>
        <path id="DejaVuSans-33" d="M 2597 2516 
Q 3050 2419 3304 2112 
Q 3559 1806 3559 1356 
Q 3559 666 3084 287 
Q 2609 -91 1734 -91 
Q 1441 -91 1130 -33 
Q 819 25 488 141 
L 488 750 
Q 750 597 1062 519 
Q 1375 441 1716 441 
Q 2309 441 2620 675 
Q 2931 909 2931 1356 
Q 2931 1769 2642 2001 
Q 2353 2234 1838 2234 
L 1294 2234 
L 1294 2753 
L 1863 2753 
Q 2328 2753 2575 2939 
Q 2822 3125 2822 3475 
Q 2822 3834 2567 4026 
Q 2313 4219 1838 4219 
Q 1578 4219 1281 4162 
Q 984 4106 628 3988 
L 628 4550 
Q 988 4650 1302 4700 
Q 1616 4750 1894 4750 
Q 2613 4750 3031 4423 
Q 3450 4097 3450 3541 
Q 3450 3153 3228 2886 
Q 3006 2619 2597 2516 
z
" transform="scale(0.015625)"/>
       </defs>
       <use xlink:href="#DejaVuSans-52"/>
       <use xlink:href="#DejaVuSans-36" x="69.482422"/>
       <use xlink:href="#DejaVuSans-33" x="133.105469"/>
      </g>
     </g>
    </g>
    <g id="xtick_16">
     <g id="line2d_16">
      <g>
       <use xlink:href="#mf784475f1b" x="243.1257" y="95.23" style="stroke: #000000; stroke-width: 0.8"/>
      </g>
     </g>
     <g id="text_16">
      <!-- R62 -->
      <g transform="translate(244.781325 114.034063) rotate(-90) scale(0.06 -0.06)">
       <use xlink:href="#DejaVuSans-52"/>
       <use xlink:href="#DejaVuSans-36" x="69.482422"/>
       <use xlink:href="#DejaVuSans-32" x="133.105469"/>
      </g>
     </g>
    </g>
    <g id="xtick_17">
     <g id="line2d_17">
      <g>
       <use xlink:href="#mf784475f1b" x="256.6351" y="95.23" style="stroke: #000000; stroke-width: 0.8"/>
      </g>
     </g>
     <g id="text_17">
      <!-- R64 -->
      <g transform="translate(258.290725 114.034063) rotate(-90) scale(0.06 -0.06)">
       <defs>
        <path id="DejaVuSans-34" d="M 2419 4116 
L 825 1625 
L 2419 1625 
L 2419 4116 
z
M 2253 4666 
L 3047 4666 
L 3047 1625 
L 3713 1625 
L 3713 1100 
L 3047 1100 
L 3047 0 
L 2419 0 
L 2419 1100 
L 313 1100 
L 313 1709 
L 2253 4666 
z
" transform="scale(0.015625)"/>
       </defs>
       <use xlink:href="#DejaVuSans-52"/>
       <use xlink:href="#DejaVuSans-36" x="69.482422"/>
       <use xlink:href="#DejaVuSans-34" x="133.105469"/>
      </g>
     </g>
    </g>
    <g id="xtick_18">
     <g id="line2d_18">
      <g>
       <use xlink:href="#mf784475f1b" x="270.1445" y="95.23" style="stroke: #000000; stroke-width: 0.8"/>
      </g>
     </g>
     <g id="text_18">
      <!-- R61 -->
      <g transform="translate(271.800125 114.034063) rotate(-90) scale(0.06 -0.06)">
       <use xlink:href="#DejaVuSans-52"/>
       <use xlink:href="#DejaVuSans-36" x="69.482422"/>
       <use xlink:href="#DejaVuSans-31" x="133.105469"/>
      </g>
     </g>
    </g>
   </g>
   <g id="matplotlib.axis_2">
    <g id="ytick_1">
     <g id="line2d_19">
      <defs>
       <path id="me9b0cacbc9" d="M 0 0 
L -3.5 0 
" style="stroke: #000000; stroke-width: 0.8"/>
      </defs>
      <g>
       <use xlink:href="#me9b0cacbc9" x="33.73" y="95.23" style="stroke: #000000; stroke-width: 0.8"/>
      </g>
     </g>
     <g id="text_19">
      <!-- 0.00 -->
      <g transform="translate(4.464375 99.029219) scale(0.1 -0.1)">
       <defs>
        <path id="DejaVuSans-2e" d="M 684 794 
L 1344 794 
L 1344 0 
L 684 0 
L 684 794 
z
" transform="scale(0.015625)"/>
       </defs>
       <use xlink:href="#DejaVuSans-30"/>
       <use xlink:href="#DejaVuSans-2e" x="63.623047"/>
       <use xlink:href="#DejaVuSans-30" x="95.410156"/>
       <use xlink:href="#DejaVuSans-30" x="159.033203"/>
      </g>
     </g>
    </g>
    <g id="ytick_2">
     <g id="line2d_20">
      <g>
       <use xlink:href="#me9b0cacbc9" x="33.73" y="75.1125" style="stroke: #000000; stroke-width: 0.8"/>
      </g>
     </g>
     <g id="text_20">
      <!-- 0.25 -->
      <g transform="translate(4.464375 78.911719) scale(0.1 -0.1)">
       <use xlink:href="#DejaVuSans-30"/>
       <use xlink:href="#DejaVuSans-2e" x="63.623047"/>
       <use xlink:href="#DejaVuSans-32" x="95.410156"/>
       <use xlink:href="#DejaVuSans-35" x="159.033203"/>
      </g>
     </g>
    </g>
    <g id="ytick_3">
     <g id="line2d_21">
      <g>
       <use xlink:href="#me9b0cacbc9" x="33.73" y="54.995" style="stroke: #000000; stroke-width: 0.8"/>
      </g>
     </g>
     <g id="text_21">
      <!-- 0.50 -->
      <g transform="translate(4.464375 58.794219) scale(0.1 -0.1)">
       <use xlink:href="#DejaVuSans-30"/>
       <use xlink:href="#DejaVuSans-2e" x="63.623047"/>
       <use xlink:href="#DejaVuSans-35" x="95.410156"/>
       <use xlink:href="#DejaVuSans-30" x="159.033203"/>
      </g>
     </g>
    </g>
    <g id="ytick_4">
     <g id="line2d_22">
      <g>
       <use xlink:href="#me9b0cacbc9" x="33.73" y="34.8775" style="stroke: #000000; stroke-width: 0.8"/>
      </g>
     </g>
     <g id="text_22">
      <!-- 0.75 -->
      <g transform="translate(4.464375 38.676719) scale(0.1 -0.1)">
       <use xlink:href="#DejaVuSans-30"/>
       <use xlink:href="#DejaVuSans-2e" x="63.623047"/>
       <use xlink:href="#DejaVuSans-37" x="95.410156"/>
       <use xlink:href="#DejaVuSans-35" x="159.033203"/>
      </g>
     </g>
    </g>
    <g id="ytick_5">
     <g id="line2d_23">
      <g>
       <use xlink:href="#me9b0cacbc9" x="33.73" y="14.76" style="stroke: #000000; stroke-width: 0.8"/>
      </g>
     </g>
     <g id="text_23">
      <!-- 1.00 -->
      <g transform="translate(4.464375 18.559219) scale(0.1 -0.1)">
       <use xlink:href="#DejaVuSans-31"/>
       <use xlink:href="#DejaVuSans-2e" x="63.623047"/>
       <use xlink:href="#DejaVuSans-30" x="95.410156"/>
       <use xlink:href="#DejaVuSans-30" x="159.033203"/>
      </g>
     </g>
    </g>
   </g>
   <g id="line2d_24">
    <path d="M 33.73 95.23 
L 276.8992 95.23 
" clip-path="url(#pe5a550eb34)" style="fill: none; stroke: #000000; stroke-width: 2; stroke-linecap: square"/>
   </g>
   <g id="patch_3">
    <path d="M 33.73 95.23 
L 33.73 14.76 
" style="fill: none; stroke: #000000; stroke-width: 0.8; stroke-linejoin: miter; stroke-linecap: square"/>
   </g>
  </g>
  <g id="axes_2">
   <g id="patch_4">
    <path d="M 33.73 124.73 
L 78.761333 124.73 
L 78.761333 156.918 
L 33.73 156.918 
z
" clip-path="url(#p1d2bafc290)" style="fill: #e2d981; stroke: #e2d981; stroke-linejoin: miter"/>
   </g>
   <g id="patch_5">
    <path d="M 168.824 124.73 
L 213.855333 124.73 
L 213.855333 156.918 
L 168.824 156.918 
z
" clip-path="url(#p1d2bafc290)" style="fill: #f7a39e; stroke: #f7a39e; stroke-linejoin: miter"/>
   </g>
   <g id="patch_6">
    <path d="M 303.918 124.73 
L 348.949333 124.73 
L 348.949333 156.918 
L 303.918 156.918 
z
" clip-path="url(#p1d2bafc290)" style="fill: #fc8390; stroke: #fc8390; stroke-linejoin: miter"/>
   </g>
   <g id="patch_7">
    <path d="M 439.012 124.73 
L 484.043333 124.73 
L 484.043333 156.918 
L 439.012 156.918 
z
" clip-path="url(#p1d2bafc290)" style="fill: #d08a91; stroke: #d08a91; stroke-linejoin: miter"/>
   </g>
   <g id="patch_8">
    <path d="M 574.106 124.73 
L 619.137333 124.73 
L 619.137333 156.918 
L 574.106 156.918 
z
" clip-path="url(#p1d2bafc290)" style="fill: #b3dbec; stroke: #b3dbec; stroke-linejoin: miter"/>
   </g>
   <g id="patch_9">
    <path d="M 33.73 173.012 
L 78.761333 173.012 
L 78.761333 205.2 
L 33.73 205.2 
z
" clip-path="url(#p1d2bafc290)" style="fill: #969ff9; stroke: #969ff9; stroke-linejoin: miter"/>
   </g>
   <g id="patch_10">
    <path d="M 168.824 173.012 
L 213.855333 173.012 
L 213.855333 205.2 
L 168.824 205.2 
z
" clip-path="url(#p1d2bafc290)" style="fill: #94c384; stroke: #94c384; stroke-linejoin: miter"/>
   </g>
   <g id="text_24">
    <!-- C31-C17d-C21-C... -->
    <g transform="translate(87.7676 143.0315) scale(0.08 -0.08)">
     <defs>
      <path id="DejaVuSans-43" d="M 4122 4306 
L 4122 3641 
Q 3803 3938 3442 4084 
Q 3081 4231 2675 4231 
Q 1875 4231 1450 3742 
Q 1025 3253 1025 2328 
Q 1025 1406 1450 917 
Q 1875 428 2675 428 
Q 3081 428 3442 575 
Q 3803 722 4122 1019 
L 4122 359 
Q 3791 134 3420 21 
Q 3050 -91 2638 -91 
Q 1578 -91 968 557 
Q 359 1206 359 2328 
Q 359 3453 968 4101 
Q 1578 4750 2638 4750 
Q 3056 4750 3426 4639 
Q 3797 4528 4122 4306 
z
" transform="scale(0.015625)"/>
      <path id="DejaVuSans-2d" d="M 313 2009 
L 1997 2009 
L 1997 1497 
L 313 1497 
L 313 2009 
z
" transform="scale(0.015625)"/>
      <path id="DejaVuSans-64" d="M 2906 2969 
L 2906 4863 
L 3481 4863 
L 3481 0 
L 2906 0 
L 2906 525 
Q 2725 213 2448 61 
Q 2172 -91 1784 -91 
Q 1150 -91 751 415 
Q 353 922 353 1747 
Q 353 2572 751 3078 
Q 1150 3584 1784 3584 
Q 2172 3584 2448 3432 
Q 2725 3281 2906 2969 
z
M 947 1747 
Q 947 1113 1208 752 
Q 1469 391 1925 391 
Q 2381 391 2643 752 
Q 2906 1113 2906 1747 
Q 2906 2381 2643 2742 
Q 2381 3103 1925 3103 
Q 1469 3103 1208 2742 
Q 947 2381 947 1747 
z
" transform="scale(0.015625)"/>
     </defs>
     <use xlink:href="#DejaVuSans-43"/>
     <use xlink:href="#DejaVuSans-33" x="69.824219"/>
     <use xlink:href="#DejaVuSans-31" x="133.447266"/>
     <use xlink:href="#DejaVuSans-2d" x="197.070312"/>
     <use xlink:href="#DejaVuSans-43" x="233.154297"/>
     <use xlink:href="#DejaVuSans-31" x="302.978516"/>
     <use xlink:href="#DejaVuSans-37" x="366.601562"/>
     <use xlink:href="#DejaVuSans-64" x="430.224609"/>
     <use xlink:href="#DejaVuSans-2d" x="493.701172"/>
     <use xlink:href="#DejaVuSans-43" x="529.785156"/>
     <use xlink:href="#DejaVuSans-32" x="599.609375"/>
     <use xlink:href="#DejaVuSans-31" x="663.232422"/>
     <use xlink:href="#DejaVuSans-2d" x="726.855469"/>
     <use xlink:href="#DejaVuSans-43" x="762.939453"/>
     <use xlink:href="#DejaVuSans-2e" x="832.763672"/>
     <use xlink:href="#DejaVuSans-2e" x="864.550781"/>
     <use xlink:href="#DejaVuSans-2e" x="896.337891"/>
    </g>
   </g>
   <g id="text_25">
    <!-- D1/D4-D6-D1ab-... -->
    <g transform="translate(222.8616 143.0315) scale(0.08 -0.08)">
     <defs>
      <path id="DejaVuSans-44" d="M 1259 4147 
L 1259 519 
L 2022 519 
Q 2988 519 3436 956 
Q 3884 1394 3884 2338 
Q 3884 3275 3436 3711 
Q 2988 4147 2022 4147 
L 1259 4147 
z
M 628 4666 
L 1925 4666 
Q 3281 4666 3915 4102 
Q 4550 3538 4550 2338 
Q 4550 1131 3912 565 
Q 3275 0 1925 0 
L 628 0 
L 628 4666 
z
" transform="scale(0.015625)"/>
      <path id="DejaVuSans-2f" d="M 1625 4666 
L 2156 4666 
L 531 -594 
L 0 -594 
L 1625 4666 
z
" transform="scale(0.015625)"/>
      <path id="DejaVuSans-61" d="M 2194 1759 
Q 1497 1759 1228 1600 
Q 959 1441 959 1056 
Q 959 750 1161 570 
Q 1363 391 1709 391 
Q 2188 391 2477 730 
Q 2766 1069 2766 1631 
L 2766 1759 
L 2194 1759 
z
M 3341 1997 
L 3341 0 
L 2766 0 
L 2766 531 
Q 2569 213 2275 61 
Q 1981 -91 1556 -91 
Q 1019 -91 701 211 
Q 384 513 384 1019 
Q 384 1609 779 1909 
Q 1175 2209 1959 2209 
L 2766 2209 
L 2766 2266 
Q 2766 2663 2505 2880 
Q 2244 3097 1772 3097 
Q 1472 3097 1187 3025 
Q 903 2953 641 2809 
L 641 3341 
Q 956 3463 1253 3523 
Q 1550 3584 1831 3584 
Q 2591 3584 2966 3190 
Q 3341 2797 3341 1997 
z
" transform="scale(0.015625)"/>
      <path id="DejaVuSans-62" d="M 3116 1747 
Q 3116 2381 2855 2742 
Q 2594 3103 2138 3103 
Q 1681 3103 1420 2742 
Q 1159 2381 1159 1747 
Q 1159 1113 1420 752 
Q 1681 391 2138 391 
Q 2594 391 2855 752 
Q 3116 1113 3116 1747 
z
M 1159 2969 
Q 1341 3281 1617 3432 
Q 1894 3584 2278 3584 
Q 2916 3584 3314 3078 
Q 3713 2572 3713 1747 
Q 3713 922 3314 415 
Q 2916 -91 2278 -91 
Q 1894 -91 1617 61 
Q 1341 213 1159 525 
L 1159 0 
L 581 0 
L 581 4863 
L 1159 4863 
L 1159 2969 
z
" transform="scale(0.015625)"/>
     </defs>
     <use xlink:href="#DejaVuSans-44"/>
     <use xlink:href="#DejaVuSans-31" x="77.001953"/>
     <use xlink:href="#DejaVuSans-2f" x="140.625"/>
     <use xlink:href="#DejaVuSans-44" x="174.316406"/>
     <use xlink:href="#DejaVuSans-34" x="251.318359"/>
     <use xlink:href="#DejaVuSans-2d" x="314.941406"/>
     <use xlink:href="#DejaVuSans-44" x="351.025391"/>
     <use xlink:href="#DejaVuSans-36" x="428.027344"/>
     <use xlink:href="#DejaVuSans-2d" x="491.650391"/>
     <use xlink:href="#DejaVuSans-44" x="527.734375"/>
     <use xlink:href="#DejaVuSans-31" x="604.736328"/>
     <use xlink:href="#DejaVuSans-61" x="668.359375"/>
     <use xlink:href="#DejaVuSans-62" x="729.638672"/>
     <use xlink:href="#DejaVuSans-2d" x="793.115234"/>
     <use xlink:href="#DejaVuSans-2e" x="829.199219"/>
     <use xlink:href="#DejaVuSans-2e" x="860.986328"/>
     <use xlink:href="#DejaVuSans-2e" x="892.773438"/>
    </g>
   </g>
   <g id="text_26">
    <!-- C31-C17d-C21-C... -->
    <g transform="translate(357.9556 143.0315) scale(0.08 -0.08)">
     <use xlink:href="#DejaVuSans-43"/>
     <use xlink:href="#DejaVuSans-33" x="69.824219"/>
     <use xlink:href="#DejaVuSans-31" x="133.447266"/>
     <use xlink:href="#DejaVuSans-2d" x="197.070312"/>
     <use xlink:href="#DejaVuSans-43" x="233.154297"/>
     <use xlink:href="#DejaVuSans-31" x="302.978516"/>
     <use xlink:href="#DejaVuSans-37" x="366.601562"/>
     <use xlink:href="#DejaVuSans-64" x="430.224609"/>
     <use xlink:href="#DejaVuSans-2d" x="493.701172"/>
     <use xlink:href="#DejaVuSans-43" x="529.785156"/>
     <use xlink:href="#DejaVuSans-32" x="599.609375"/>
     <use xlink:href="#DejaVuSans-31" x="663.232422"/>
     <use xlink:href="#DejaVuSans-2d" x="726.855469"/>
     <use xlink:href="#DejaVuSans-43" x="762.939453"/>
     <use xlink:href="#DejaVuSans-2e" x="832.763672"/>
     <use xlink:href="#DejaVuSans-2e" x="864.550781"/>
     <use xlink:href="#DejaVuSans-2e" x="896.337891"/>
    </g>
   </g>
   <g id="text_27">
    <!-- D1/D4/D1ab-D6-... -->
    <g transform="translate(493.0496 143.0315) scale(0.08 -0.08)">
     <use xlink:href="#DejaVuSans-44"/>
     <use xlink:href="#DejaVuSans-31" x="77.001953"/>
     <use xlink:href="#DejaVuSans-2f" x="140.625"/>
     <use xlink:href="#DejaVuSans-44" x="174.316406"/>
     <use xlink:href="#DejaVuSans-34" x="251.318359"/>
     <use xlink:href="#DejaVuSans-2f" x="314.941406"/>
     <use xlink:href="#DejaVuSans-44" x="348.632812"/>
     <use xlink:href="#DejaVuSans-31" x="425.634766"/>
     <use xlink:href="#DejaVuSans-61" x="489.257812"/>
     <use xlink:href="#DejaVuSans-62" x="550.537109"/>
     <use xlink:href="#DejaVuSans-2d" x="614.013672"/>
     <use xlink:href="#DejaVuSans-44" x="650.097656"/>
     <use xlink:href="#DejaVuSans-36" x="727.099609"/>
     <use xlink:href="#DejaVuSans-2d" x="790.722656"/>
     <use xlink:href="#DejaVuSans-2e" x="826.806641"/>
     <use xlink:href="#DejaVuSans-2e" x="858.59375"/>
     <use xlink:href="#DejaVuSans-2e" x="890.380859"/>
    </g>
   </g>
   <g id="text_28">
    <!-- C15 -->
    <g transform="translate(628.1436 143.0315) scale(0.08 -0.08)">
     <use xlink:href="#DejaVuSans-43"/>
     <use xlink:href="#DejaVuSans-31" x="69.824219"/>
     <use xlink:href="#DejaVuSans-35" x="133.447266"/>
    </g>
   </g>
   <g id="text_29">
    <!-- D1-D4-D6-D17d -->
    <g transform="translate(87.7676 191.3135) scale(0.08 -0.08)">
     <use xlink:href="#DejaVuSans-44"/>
     <use xlink:href="#DejaVuSans-31" x="77.001953"/>
     <use xlink:href="#DejaVuSans-2d" x="140.625"/>
     <use xlink:href="#DejaVuSans-44" x="176.708984"/>
     <use xlink:href="#DejaVuSans-34" x="253.710938"/>
     <use xlink:href="#DejaVuSans-2d" x="317.333984"/>
     <use xlink:href="#DejaVuSans-44" x="353.417969"/>
     <use xlink:href="#DejaVuSans-36" x="430.419922"/>
     <use xlink:href="#DejaVuSans-2d" x="494.042969"/>
     <use xlink:href="#DejaVuSans-44" x="530.126953"/>
     <use xlink:href="#DejaVuSans-31" x="607.128906"/>
     <use xlink:href="#DejaVuSans-37" x="670.751953"/>
     <use xlink:href="#DejaVuSans-64" x="734.375"/>
    </g>
   </g>
   <g id="text_30">
    <!-- D1/D4/D6/D1ab -->
    <g transform="translate(222.8616 191.3135) scale(0.08 -0.08)">
     <use xlink:href="#DejaVuSans-44"/>
     <use xlink:href="#DejaVuSans-31" x="77.001953"/>
     <use xlink:href="#DejaVuSans-2f" x="140.625"/>
     <use xlink:href="#DejaVuSans-44" x="174.316406"/>
     <use xlink:href="#DejaVuSans-34" x="251.318359"/>
     <use xlink:href="#DejaVuSans-2f" x="314.941406"/>
     <use xlink:href="#DejaVuSans-44" x="348.632812"/>
     <use xlink:href="#DejaVuSans-36" x="425.634766"/>
     <use xlink:href="#DejaVuSans-2f" x="489.257812"/>
     <use xlink:href="#DejaVuSans-44" x="522.949219"/>
     <use xlink:href="#DejaVuSans-31" x="599.951172"/>
     <use xlink:href="#DejaVuSans-61" x="663.574219"/>
     <use xlink:href="#DejaVuSans-62" x="724.853516"/>
    </g>
   </g>
  </g>
 </g>
 <defs>
  <clipPath id="pe5a550eb34">
   <rect x="33.73" y="14.76" width="675.47" height="80.47"/>
  </clipPath>
  <clipPath id="p1d2bafc290">
   <rect x="33.73" y="124.73" width="675.47" height="80.47"/>
  </clipPath>
 </defs>
</svg>
